HIERARCHY
ROOT Hips
{
	OFFSET -3.958830 18.904000 13.208200
	CHANNELS 6 Xposition Yposition Zposition Zrotation Yrotation Xrotation 
	JOINT LHipJoint
	{
		OFFSET 0.000000 0.000000 0.000000
		CHANNELS 3 Zrotation Yrotation Xrotation
		JOINT LeftUpLeg
		{
			OFFSET 1.800000 -1.400000 0.085000
			CHANNELS 3 Zrotation Yrotation Xrotation
			JOINT LeftLeg
			{
				OFFSET 2.215000 -6.000000 0.000000
				CHANNELS 3 Zrotation Yrotation Xrotation
				JOINT LeftFoot
				{
					OFFSET 2.500000 -6.900000 0.000000
					CHANNELS 3 Zrotation Yrotation Xrotation
					JOINT LeftToeBase
					{
						OFFSET 0.200000 -0.500000 1.950000
						CHANNELS 3 Zrotation Yrotation Xrotation
						End Site
						{
							OFFSET 0.000000 0.000000 0.000000
						}
					}
				}
			}
		}
	}
	JOINT RHipJoint
	{
		OFFSET 0.000000 0.000000 0.000000
		CHANNELS 3 Zrotation Yrotation Xrotation
		JOINT RightUpLeg
		{
			OFFSET -1.800000 -1.400000 0.085000
			CHANNELS 3 Zrotation Yrotation Xrotation
			JOINT RightLeg
			{
				OFFSET -2.215000 -6.000000 0.000000
				CHANNELS 3 Zrotation Yrotation Xrotation
				JOINT RightFoot
				{
					OFFSET -2.500000 -6.900000 0.000000
					CHANNELS 3 Zrotation Yrotation Xrotation
					JOINT RightToeBase
					{
						OFFSET -0.200000 -0.500000 1.950000
						CHANNELS 3 Zrotation Yrotation Xrotation
						End Site
						{
							OFFSET 0.000000 0.000000 0.000000
						}
					}
				}
			}
		}
	}
	JOINT LowerBack
	{
		OFFSET 0.000000 0.000000 0.000000
		CHANNELS 3 Zrotation Yrotation Xrotation
		JOINT Spine
		{
			OFFSET -0.087000 1.940000 -0.288900
			CHANNELS 3 Zrotation Yrotation Xrotation
			JOINT Spine1
			{
				OFFSET 0.000000 1.950000 0.060000
				CHANNELS 3 Zrotation Yrotation Xrotation
				JOINT Neck
				{
					OFFSET 0.000000 0.000000 0.000000
					CHANNELS 3 Zrotation Yrotation Xrotation
					JOINT Neck1
					{
						OFFSET 0.000000 1.600000 0.340000
						CHANNELS 3 Zrotation Yrotation Xrotation
						JOINT Head
						{
							OFFSET 0.000000 1.667000 -0.240000
							CHANNELS 3 Zrotation Yrotation Xrotation
							End Site
							{
								OFFSET 0.000000 0.000000 0.000000
							}
						}
					}
				}
				JOINT LeftShoulder
				{
					OFFSET 0.000000 0.000000 0.000000
					CHANNELS 3 Zrotation Yrotation Xrotation
					JOINT LeftArm
					{
						OFFSET 2.700000 1.550000 -0.730000
						CHANNELS 3 Zrotation Yrotation Xrotation
						JOINT LeftForeArm
						{
							OFFSET 5.450000 0.000000 0.000000
							CHANNELS 3 Zrotation Yrotation Xrotation
							JOINT LeftHand
							{
								OFFSET 3.450000 0.000000 0.000000
								CHANNELS 3 Zrotation Yrotation Xrotation
								JOINT LeftHandIndex1
								{
									OFFSET 0.750000 0.000000 0.000000
									CHANNELS 3 Zrotation Yrotation Xrotation
									End Site
									{
										OFFSET 0.000000 0.000000 0.000000
									}
								}
							}
						}
					}
				}
				JOINT RightShoulder
				{
					OFFSET 0.000000 0.000000 0.000000
					CHANNELS 3 Zrotation Yrotation Xrotation
					JOINT RightArm
					{
						OFFSET -2.700000 1.550000 -0.730000
						CHANNELS 3 Zrotation Yrotation Xrotation
						JOINT RightForeArm
						{
							OFFSET -5.450000 0.000000 0.000000
							CHANNELS 3 Zrotation Yrotation Xrotation
							JOINT RightHand
							{
								OFFSET -3.450000 0.000000 0.000000
								CHANNELS 3 Zrotation Yrotation Xrotation
								JOINT RightHandIndex1
								{
									OFFSET -0.750000 0.000000 0.000000
									CHANNELS 3 Zrotation Yrotation Xrotation
									End Site
									{
										OFFSET 0.000000 0.000000 0.000000
									}
								}
							}
						}
					}
				}
			}
		}
	}
}
MOTION
Frames: 8
Frame Time: 0.016667
-1.230590 15.437840 -5.559340 -0.809670 -10.726294 -21.879441 -15.064182 11.625420 3.364942 37.465190 -0.320400 -18.225272 2.778841 16.704316 65.492072 1.646734 11.768521 0.129831 0.638090 0.889120 0.525620 18.780889 -9.855586 3.630399 -43.476671 2.072095 -29.494188 9.320564 -21.484538 60.636016 -1.975575 -10.522549 0.155335 0.150160 -0.453200 0.280100 -4.508776 -0.004795 -8.844130 44.241124 -13.778689 36.358930 -10.264271 -6.711287 14.279979 7.165419 7.889899 -15.977680 28.788905 -21.269221 54.360885 22.340430 -8.800350 -30.846560 -10.842734 -17.181274 10.111325 -34.426152 6.152393 -12.295934 29.196389 -32.088244 -8.195643 -2.792248 3.259930 0.681530 -0.640030 0.929050 0.073330 -1.937197 15.391916 7.947229 48.442296 26.330717 -12.699085 -30.151476 47.419347 -18.065585 2.530643 -1.051650 0.358710 -0.044940 -0.384230 0.206540 
-1.241780 15.439060 -5.512450 -0.575708 -10.480558 -22.487710 -15.046220 11.701908 3.271443 37.255832 -0.538212 -17.105029 2.873219 16.480764 65.395724 1.583728 11.770562 0.107554 0.609710 0.831820 0.531760 18.775892 -9.950162 3.608990 -43.961637 1.991637 -28.670453 9.179379 -21.405295 60.701919 -1.971787 -10.522588 0.131464 0.133080 -0.466690 0.288310 -4.510862 -0.003979 -8.800547 44.637089 -13.338993 35.906037 -10.463609 -6.023562 14.554044 6.853236 8.052989 -16.750827 28.729145 -22.733348 54.277638 21.452670 -9.676790 -31.493840 -10.067033 -19.056174 10.635168 -32.653941 5.883551 -12.099383 28.678663 -31.149235 -8.092740 -2.804438 3.222777 0.723030 -0.644810 0.926700 0.031680 -2.421996 17.159788 8.931210 49.652538 24.656432 -13.338727 -26.772169 46.735228 -16.396994 2.504171 -1.071801 0.332930 -0.041040 -0.337220 0.170810 
-1.250220 15.463850 -5.450830 -0.523164 -10.220195 -22.790532 -15.028215 11.793783 3.216249 37.431861 -0.641494 -16.041644 2.788221 16.262428 64.458257 1.471907 11.725935 0.119367 0.558670 0.721660 0.550630 18.767376 -10.070952 3.528811 -43.796241 1.748066 -27.817726 8.502700 -21.055270 60.775106 -1.932217 -10.473088 0.122501 0.111700 -0.442480 0.272470 -4.510047 0.008371 -8.755499 44.258198 -12.744392 35.344793 -9.975165 -5.435442 13.641442 6.428415 8.220727 -16.581096 28.870068 -22.652335 52.955064 20.433750 -9.375760 -30.806690 -9.754668 -18.558898 10.111266 -31.631519 5.542417 -12.180084 29.444293 -32.151394 -8.686135 -2.850372 3.147631 0.767520 -0.630190 0.883590 -0.015180 -2.059219 16.605976 9.020598 51.269594 23.943683 -12.018965 -21.836911 44.156568 -13.226341 2.519576 -1.076840 0.255770 -0.010890 -0.280800 0.113480 
-1.250900 15.499240 -5.364130 -0.600783 -9.842186 -22.317909 -14.958595 11.650020 3.256786 37.960405 -0.758493 -14.993293 1.127469 17.115534 62.983334 1.395142 11.794335 0.091014 0.473770 0.570240 0.539030 18.824089 -10.298702 3.428499 -43.176409 1.244813 -27.605844 6.972176 -20.403817 61.065543 -1.858874 -10.410157 0.124875 0.059750 -0.415150 0.269700 -4.681900 0.531325 -8.745514 44.538248 -12.057912 33.421118 -10.676304 -4.306963 12.150347 5.547061 8.557586 -16.444292 29.954782 -22.949144 50.129257 19.148640 -9.280110 -28.482360 -8.342495 -17.369374 9.272529 -30.786730 4.365657 -11.993135 29.123340 -33.742723 -8.949429 -2.919462 3.109113 0.788000 -0.591630 0.816580 -0.070320 -2.201687 15.234279 9.546224 56.334293 22.470922 -10.994235 -18.675006 41.771572 -11.335474 2.529185 -1.093785 0.186420 -0.025660 -0.208520 0.054660 
-1.245670 15.574310 -5.264930 -0.942970 -10.076060 -21.273528 -14.927020 11.703237 3.341186 38.689775 -0.544436 -13.584643 -0.625929 17.877179 60.473819 1.297061 11.766839 0.103030 0.377430 0.421240 0.520320 18.814585 -10.517933 3.207704 -41.094644 1.047835 -27.399625 4.694207 -18.805431 60.608855 -1.738086 -10.097982 0.206427 0.007370 -0.371850 0.278770 -4.707326 0.726124 -8.691049 44.433318 -11.111589 31.709393 -10.324104 -3.166018 9.496079 4.877799 8.785794 -15.789178 29.862572 -23.193888 47.457077 16.455780 -9.228530 -27.443710 -7.950912 -14.707485 7.884878 -31.249382 3.068897 -11.349260 27.111937 -34.975490 -8.425045 -3.026109 3.035303 0.808500 -0.543130 0.763960 -0.123170 -1.753882 12.627508 9.414387 60.356346 20.394780 -10.132735 -15.004200 39.778916 -9.201236 2.542865 -1.064151 0.117260 -0.009700 -0.126760 0.007440 
-1.227470 15.677210 -5.143940 -0.805373 -9.977688 -19.516718 -14.894135 11.730748 3.423506 38.487112 -0.390095 -12.799046 -3.004504 18.760168 57.428951 1.276176 11.629905 0.159613 0.331500 0.347080 0.510260 18.818050 -10.692141 3.020411 -39.470000 0.383082 -27.647375 2.410848 -17.181980 59.270463 -1.604398 -9.692750 0.343765 -0.040930 -0.363670 0.305640 -4.749409 0.869964 -8.648022 43.648715 -9.705348 28.721823 -9.747135 -2.215047 6.313603 4.109495 9.181198 -15.091847 29.392880 -23.428496 45.650171 13.175570 -9.623790 -25.111550 -8.711059 -12.182398 6.862256 -31.504428 2.631926 -10.434887 23.126063 -35.898126 -7.074677 -3.092328 3.045124 0.768920 -0.494460 0.728600 -0.138400 -0.126657 9.698670 8.967639 62.974484 16.943728 -9.963066 -11.095567 38.840825 -7.283027 2.576477 -1.089234 0.125000 -0.053030 -0.109860 -0.003820 
-1.187140 15.810650 -5.017080 -0.843221 -9.710142 -17.012467 -14.852976 11.820683 3.441713 37.543719 -0.166121 -12.646224 -4.636017 18.937120 54.179946 1.234584 11.330465 0.256892 0.264990 0.237340 0.492930 18.818668 -10.840430 2.917650 -37.751755 -0.265644 -28.234164 0.981332 -16.015986 56.994468 -1.447189 -9.248912 0.477042 -0.118310 -0.371550 0.355790 -4.790809 0.953744 -8.605168 43.363946 -8.344399 24.572724 -9.851756 -1.317139 2.724019 3.535164 9.403830 -14.555861 28.093126 -23.207081 43.605923 7.855060 -9.960280 -21.572670 -9.166522 -9.289299 6.038705 -33.808365 3.195680 -9.928678 20.325822 -37.018999 -6.023835 -3.159623 3.105255 0.709750 -0.443950 0.687300 -0.166460 0.478320 6.821015 8.963517 66.723936 13.166571 -10.544089 -9.244488 39.133880 -6.454260 2.603176 -1.143414 0.152700 -0.141990 -0.082090 -0.012550 
-1.131100 15.972360 -4.872680 -1.167399 -9.332670 -14.226185 -14.822813 12.070321 3.390399 36.174245 0.183414 -12.691950 -5.321005 18.313439 50.526586 1.229150 10.743234 0.442243 0.245480 0.174600 0.504930 18.789934 -10.947822 2.828801 -35.866617 -0.683727 -28.468357 0.367018 -15.177298 54.074009 -1.305430 -8.751891 0.625647 -0.210300 -0.433180 0.428070 -4.770484 0.756781 -8.526513 43.900811 -7.130822 20.087136 -10.532321 -0.469398 -1.231124 3.074024 9.605037 -13.885775 25.589583 -21.905041 41.399098 3.348090 -9.481000 -18.362540 -9.528140 -5.645302 5.348568 -37.573097 4.749899 -9.778973 18.507969 -37.577538 -5.020093 -3.164573 3.267245 0.630120 -0.428840 0.677240 -0.170440 0.574233 3.210433 9.071798 69.617651 8.174020 -12.348930 -6.621533 42.694343 -5.664682 2.645704 -1.277490 0.244990 -0.312130 -0.118250 -0.001780 
